<?xml version="1.0" encoding="utf-8"?>
<svg xmlns="http://www.w3.org/2000/svg"
	xmlns:xlink="http://www.w3.org/1999/xlink"
	width="15px" height="15px" viewBox="0 0 15 15">
<path fillRule="evenodd" d="M 12 15C 12 15 3 15 3 15 1.34 15 0 13.66 0 12 0 12 0 3 0 3 0 1.34 1.34 0 3 0 3 0 12 0 12 0 13.66 0 15 1.34 15 3 15 3 15 12 15 12 15 13.66 13.66 15 12 15ZM 13 9.17C 13 9.17 13 6 13 6 13 6 2 6 2 6 2 6 2 4 2 4 2 4 9 4 9 4 9 4 9 2 9 2 9 2 11 2 11 2 11 2 11 4 11 4 11 4 13 4 13 4 13 4 13 3 13 3 13 2.45 12.55 2 12 2 12 2 9.17 2 9.17 2 9.17 2 5.83 2 5.83 2 5.83 2 3 2 3 2 2.45 2 2 2.45 2 3 2 3 2 5.83 2 5.83 2 5.83 2 9.17 2 9.17 2 9.17 2 12 2 12 2 12.55 2.45 13 3 13 3 13 5.83 13 5.83 13 5.83 13 9.17 13 9.17 13 9.17 13 12 13 12 13 12.55 13 13 12.55 13 12 13 12 13 9.17 13 9.17Z" fill="rgb(83,89,93)"/></svg>