<?xml version="1.0" encoding="utf-8"?>
<svg xmlns="http://www.w3.org/2000/svg"
	xmlns:xlink="http://www.w3.org/1999/xlink"
	width="22px" height="18px" viewBox="0 0 22 18">
<path fillRule="evenodd" d="M 22 15C 22 16.66 20.66 18 19 18 19 18 13 18 13 18 12.23 18 11.53 17.7 11 17.22 10.47 17.7 9.77 18 9 18 9 18 3 18 3 18 1.34 18-0 16.66-0 15-0 15-0 11-0 11-0 10.23 0.3 9.53 0.78 9 0.3 8.47-0 7.77-0 7-0 7-0 3-0 3-0 1.34 1.34 0 3 0 3 0 9 0 9 0 9.77 0 10.47 0.3 11 0.78 11.53 0.3 12.23 0 13 0 13 0 19 0 19 0 20.66 0 22 1.34 22 3 22 3 22 7 22 7 22 7.77 21.7 8.47 21.22 9 21.7 9.53 22 10.23 22 11 22 11 22 15 22 15ZM 12 12.17C 12 12.17 12 13.83 12 13.83 12 13.83 12 15 12 15 12 15.55 12.45 16 13 16 13 16 14.83 16 14.83 16 14.83 16 17.17 16 17.17 16 17.17 16 19 16 19 16 19.55 16 20 15.55 20 15 20 15 20 13.83 20 13.83 20 13.83 20 12.17 20 12.17 20 12.17 20 11 20 11 20 10.45 19.55 10 19 10 19 10 17.17 10 17.17 10 17.17 10 14.83 10 14.83 10 14.83 10 13 10 13 10 12.45 10 12 10.45 12 11 12 11 12 12.17 12 12.17ZM 10 5.83C 10 5.83 10 4.17 10 4.17 10 4.17 10 3 10 3 10 2.45 9.55 2 9 2 9 2 7.17 2 7.17 2 7.17 2 4.83 2 4.83 2 4.83 2 3 2 3 2 2.45 2 2 2.45 2 3 2 3 2 4.17 2 4.17 2 4.17 2 5.83 2 5.83 2 5.83 2 7 2 7 2 7.55 2.45 8 3 8 3 8 4.83 8 4.83 8 4.83 8 7.17 8 7.17 8 7.17 8 9 8 9 8 9.55 8 10 7.55 10 7 10 7 10 5.83 10 5.83ZM 10 13.83C 10 13.83 10 12.17 10 12.17 10 12.17 10 11 10 11 10 10.45 9.55 10 9 10 9 10 7.17 10 7.17 10 7.17 10 4.83 10 4.83 10 4.83 10 3 10 3 10 2.45 10 2 10.45 2 11 2 11 2 12.17 2 12.17 2 12.17 2 13.83 2 13.83 2 13.83 2 15 2 15 2 15.55 2.45 16 3 16 3 16 4.83 16 4.83 16 4.83 16 7.17 16 7.17 16 7.17 16 9 16 9 16 9.55 16 10 15.55 10 15 10 15 10 13.83 10 13.83ZM 20 5.83C 20 5.83 20 4.17 20 4.17 20 4.17 20 3 20 3 20 2.45 19.55 2 19 2 19 2 17.17 2 17.17 2 17.17 2 14.83 2 14.83 2 14.83 2 13 2 13 2 12.45 2 12 2.45 12 3 12 3 12 4.17 12 4.17 12 4.17 12 5.83 12 5.83 12 5.83 12 7 12 7 12 7.55 12.45 8 13 8 13 8 14.83 8 14.83 8 14.83 8 17.17 8 17.17 8 17.17 8 19 8 19 8 19.55 8 20 7.55 20 7 20 7 20 5.83 20 5.83Z" fill="rgb(149,157,163)"/></svg>