<?xml version="1.0" encoding="utf-8"?>
<svg xmlns="http://www.w3.org/2000/svg"
	xmlns:xlink="http://www.w3.org/1999/xlink"
	width="16px" height="16px" viewBox="0 0 16 16">
<path fillRule="evenodd" d="M 15 7C 15.55 7 16 7.45 16 8 16 8.55 15.55 9 15 9 15 9 13.92 9 13.92 9 13.85 9.38 13.75 9.74 13.62 10.09 13.62 10.09 14.56 10.63 14.56 10.63 15.04 10.91 15.2 11.52 14.93 12 14.65 12.48 14.04 12.64 13.56 12.37 13.56 12.37 12.62 11.82 12.62 11.82 12.38 12.11 12.11 12.38 11.82 12.62 11.82 12.62 12.37 13.56 12.37 13.56 12.64 14.04 12.48 14.65 12 14.93 11.52 15.2 10.91 15.04 10.63 14.56 10.63 14.56 10.09 13.62 10.09 13.62 9.74 13.75 9.38 13.85 9 13.92 9 13.92 9 15 9 15 9 15.55 8.55 16 8 16 7.45 16 7 15.55 7 15 7 15 7 13.92 7 13.92 6.62 13.85 6.26 13.75 5.91 13.62 5.91 13.62 5.37 14.56 5.37 14.56 5.09 15.04 4.48 15.2 4 14.93 3.52 14.65 3.36 14.04 3.63 13.56 3.63 13.56 4.18 12.62 4.18 12.62 3.88 12.38 3.62 12.11 3.38 11.82 3.38 11.82 2.44 12.37 2.44 12.37 1.96 12.64 1.35 12.48 1.07 12 0.8 11.52 0.96 10.91 1.44 10.63 1.44 10.63 2.38 10.09 2.38 10.09 2.25 9.74 2.15 9.38 2.08 9 2.08 9 1 9 1 9 0.45 9-0 8.55-0 8-0 7.45 0.45 7 1 7 1 7 2.08 7 2.08 7 2.15 6.62 2.24 6.26 2.38 5.91 2.38 5.91 1.44 5.37 1.44 5.37 0.96 5.09 0.8 4.48 1.07 4 1.35 3.52 1.96 3.36 2.44 3.63 2.44 3.63 3.38 4.18 3.38 4.18 3.62 3.88 3.88 3.62 4.18 3.38 4.18 3.38 3.63 2.44 3.63 2.44 3.36 1.96 3.52 1.35 4 1.07 4.48 0.8 5.09 0.96 5.37 1.44 5.37 1.44 5.91 2.38 5.91 2.38 6.26 2.25 6.62 2.15 7 2.08 7 2.08 7 1 7 1 7 0.45 7.45 0 8 0 8.55 0 9 0.45 9 1 9 1 9 2.08 9 2.08 9.38 2.15 9.74 2.25 10.09 2.38 10.09 2.38 10.63 1.44 10.63 1.44 10.91 0.96 11.52 0.8 12 1.07 12.48 1.35 12.64 1.96 12.37 2.44 12.37 2.44 11.82 3.38 11.82 3.38 12.11 3.62 12.38 3.89 12.62 4.18 12.62 4.18 13.56 3.63 13.56 3.63 14.04 3.36 14.65 3.52 14.93 4 15.2 4.48 15.04 5.09 14.56 5.37 14.56 5.37 13.62 5.91 13.62 5.91 13.75 6.26 13.85 6.62 13.92 7 13.92 7 15 7 15 7ZM 8 4C 5.79 4 4 5.79 4 8 4 10.21 5.79 12 8 12 10.21 12 12 10.21 12 8 12 5.79 10.21 4 8 4ZM 8 10C 6.89 10 6 9.1 6 8 6 6.9 6.89 6 8 6 9.1 6 10 6.9 10 8 10 9.1 9.1 10 8 10Z" fill="rgb(83,89,93)"/></svg>