<?xml version="1.0" encoding="utf-8"?>
<svg xmlns="http://www.w3.org/2000/svg"
	xmlns:xlink="http://www.w3.org/1999/xlink"
	width="16px" height="14px" viewBox="0 0 16 14">
<path fillRule="evenodd" d="M 16 6C 16 6.55 15.55 7 15 7 14.78 7 14.58 6.93 14.42 6.81 14.42 6.81 14.42 6.81 14.42 6.81 14.42 6.81 14 6.51 14 6.51 14 6.51 14 13 14 13 14 13.55 13.55 14 13 14 13 14 3 14 3 14 2.45 14 2 13.55 2 13 2 13 2 6.51 2 6.51 2 6.51 1.58 6.81 1.58 6.81 1.58 6.81 1.58 6.81 1.58 6.81 1.42 6.93 1.22 7 1 7 0.45 7 0 6.55 0 6 0 5.66 0.17 5.37 0.42 5.19 0.42 5.19 0.42 5.19 0.42 5.19 0.42 5.19 2 4.06 2 4.06 2 4.06 2 1 2 1 2 0.45 2.45 0 3 0 3.55 0 4 0.45 4 1 4 1 4 2.63 4 2.63 4 2.63 7.42 0.19 7.42 0.19 7.42 0.19 7.42 0.19 7.42 0.19 7.58 0.07 7.78 0 8 0 8.22 0 8.42 0.07 8.58 0.19 8.58 0.19 8.58 0.19 8.58 0.19 8.58 0.19 15.58 5.19 15.58 5.19 15.58 5.19 15.58 5.19 15.58 5.19 15.83 5.37 16 5.66 16 6ZM 12 5.09C 12 5.09 8 2.23 8 2.23 8 2.23 4 5.09 4 5.09 4 5.09 4 12 4 12 4 12 6 12 6 12 6 12 10 12 10 12 10 12 12 12 12 12 12 12 12 5.09 12 5.09Z" fill="rgb(83,89,93)"/></svg>