<?xml version="1.0" encoding="utf-8"?>
<svg xmlns="http://www.w3.org/2000/svg"
	xmlns:xlink="http://www.w3.org/1999/xlink"
	width="33px" height="32px" viewBox="0 0 33 32">
<path fillRule="evenodd" d="M 31.58 9.42C 31.58 9.42 16.58 17.5 16.58 17.5 16.43 17.58 16.26 17.62 16.1 17.62 15.94 17.62 15.77 17.58 15.62 17.5 15.62 17.5 0.78 9.42 0.78 9.42 0.45 9.24 0.25 8.89 0.25 8.52 0.26 8.15 0.47 7.81 0.81 7.64 0.81 7.64 15.81 0.1 15.81 0.1 16.09-0.04 16.43-0.04 16.71 0.11 16.71 0.11 31.56 7.65 31.56 7.65 31.89 7.82 32.1 8.15 32.1 8.53 32.11 8.9 31.91 9.24 31.58 9.42ZM 16.25 2.12C 16.25 2.12 3.41 8.57 3.41 8.57 3.41 8.57 16.1 15.49 16.1 15.49 16.1 15.49 28.95 8.56 28.95 8.56 28.95 8.56 16.25 2.12 16.25 2.12ZM 3.77 13.42C 3.77 13.42 5.91 14.58 5.91 14.58 5.91 14.58 3.24 15.92 3.24 15.92 3.24 15.92 15.93 22.83 15.93 22.83 15.93 22.83 28.78 15.91 28.78 15.91 28.78 15.91 26.28 14.64 26.28 14.64 26.28 14.64 28.42 13.49 28.42 13.49 28.42 13.49 31.39 14.99 31.39 14.99 31.72 15.16 31.93 15.5 31.93 15.87 31.94 16.25 31.73 16.59 31.41 16.77 31.41 16.77 16.4 24.85 16.4 24.85 16.26 24.93 16.09 24.97 15.93 24.97 15.76 24.97 15.6 24.93 15.45 24.85 15.45 24.85 0.6 16.76 0.6 16.76 0.28 16.59 0.08 16.24 0.08 15.87 0.09 15.5 0.3 15.16 0.63 14.99 0.63 14.99 3.77 13.42 3.77 13.42ZM 0.63 21.99C 0.63 21.99 3.58 20.64 3.58 20.64 3.58 20.64 5.72 21.8 5.72 21.8 5.72 21.8 3.24 22.92 3.24 22.92 3.24 22.92 15.93 29.83 15.93 29.83 15.93 29.83 28.78 22.91 28.78 22.91 28.78 22.91 26.43 21.77 26.43 21.77 26.43 21.77 28.57 20.61 28.57 20.61 28.57 20.61 31.39 21.99 31.39 21.99 31.72 22.16 31.93 22.5 31.93 22.87 31.94 23.25 31.73 23.59 31.41 23.77 31.41 23.77 16.4 31.85 16.4 31.85 16.26 31.93 16.09 31.97 15.93 31.97 15.76 31.97 15.6 31.93 15.45 31.85 15.45 31.85 0.6 23.76 0.6 23.76 0.28 23.59 0.08 23.24 0.08 22.87 0.09 22.5 0.3 22.16 0.63 21.99Z" fill="rgb(153,161,167)"/></svg>