<?xml version="1.0" encoding="utf-8"?>
<svg xmlns="http://www.w3.org/2000/svg"
	xmlns:xlink="http://www.w3.org/1999/xlink"
	width="32px" height="32px" viewBox="0 0 32 32">
<path fillRule="evenodd" d="M 30.1 11.09C 30.1 11.09 26.07 15.12 26.07 15.12 24.8 16.39 23.14 17.02 21.47 17.02 20.62 17.02 19.81 16.92 19.01 16.59 19.01 16.59 20.6 15 20.6 15 20.9 15.06 21.17 15.02 21.47 15.02 22.67 15.02 23.81 14.56 24.65 13.71 24.65 13.71 28.69 9.67 28.69 9.67 30.44 7.92 30.44 5.07 28.68 3.31 27.83 2.46 26.7 2 25.5 2 24.3 2 23.17 2.46 22.32 3.31 22.32 3.31 18.28 7.23 18.28 7.23 17.08 8.43 16.73 10.16 17.18 11.69 17.18 11.69 15.63 13.24 15.63 13.24 14.45 10.82 14.86 7.82 16.88 5.8 16.88 5.8 20.91 1.9 20.91 1.9 22.17 0.63 23.84-0 25.5-0 27.17-0 28.83 0.63 30.1 1.9 32.64 4.44 32.64 8.55 30.1 11.09ZM 9.95 23.18C 9.69 23.18 9.43 23.08 9.24 22.89 8.85 22.5 8.85 21.87 9.24 21.48 9.24 21.48 21.35 9.27 21.35 9.27 21.74 8.88 22.38 8.88 22.77 9.27 23.16 9.66 23.16 10.29 22.77 10.68 22.77 10.68 10.65 22.89 10.65 22.89 10.46 23.08 10.2 23.18 9.95 23.18ZM 10.43 16.94C 9.23 16.94 8.1 17.41 7.25 18.26 7.25 18.26 3.31 22.33 3.31 22.33 1.56 24.08 1.56 26.93 3.32 28.69 4.17 29.54 5.3 30 6.5 30 7.7 30 8.83 29.54 9.68 28.69 9.68 28.69 13.72 24.77 13.72 24.77 14.85 23.65 15.2 22.22 14.87 20.76 14.87 20.76 16.46 19.17 16.46 19.17 17.48 21.55 17.06 24.26 15.12 26.2 15.12 26.2 11.09 30.1 11.09 30.1 9.83 31.37 8.16 32 6.5 32 4.83 32 3.17 31.37 1.9 30.1-0.64 27.56-0.64 23.45 1.9 20.91 1.9 20.91 5.84 16.85 5.84 16.85 7.11 15.58 8.77 14.94 10.43 14.94 11.38 14.94 12.32 15.16 13.19 15.56 13.19 15.56 11.63 17.12 11.63 17.12 11.24 17.02 10.84 16.94 10.43 16.94Z" fill="rgb(149,157,163)"/></svg>