<?xml version="1.0" encoding="utf-8"?>
<svg xmlns="http://www.w3.org/2000/svg"
	xmlns:xlink="http://www.w3.org/1999/xlink"
	width="32px" height="32px" viewBox="0 0 32 32">
<path fillRule="evenodd" d="M 31.82 1.31C 31.82 1.31 19.06 31.14 19.06 31.14 18.82 31.71 18.46 31.99 18.09 31.99 17.75 31.99 17.4 31.76 17.11 31.28 17.11 31.28 12.06 23 12.06 23 11.44 22 10.13 20.68 9.14 20.06 9.14 20.06 0.71 14.8 0.71 14.8-0.28 14.18-0.21 13.3 0.86 12.85 0.86 12.85 30.7 0.18 30.7 0.18 30.97 0.06 31.2 0.01 31.39 0.01 31.97 0.01 32.17 0.5 31.82 1.31ZM 17.91 28.64C 17.91 28.64 27.75 5.64 27.75 5.64 27.75 5.64 12.92 20.73 12.92 20.73 13.27 21.15 13.59 21.57 13.83 21.96 13.83 21.96 17.91 28.64 17.91 28.64ZM 10.18 18.27C 10.61 18.54 11.06 18.91 11.51 19.31 11.51 19.31 26.28 4.28 26.28 4.28 26.28 4.28 3.35 14.01 3.35 14.01 3.35 14.01 10.18 18.27 10.18 18.27Z" fill="rgb(255,255,255)"/></svg>