<?xml version="1.0" encoding="utf-8"?>
<svg xmlns="http://www.w3.org/2000/svg"
	xmlns:xlink="http://www.w3.org/1999/xlink"
	width="15px" height="14px" viewBox="0 0 15 14">
<path fillRule="evenodd" d="M 12 14C 12 14 3 14 3 14 1.34 14-0 12.66-0 11-0 11-0 3-0 3-0 1.34 1.34 0 3 0 3 0 12 0 12 0 13.66 0 15 1.34 15 3 15 3 15 11 15 11 15 12.66 13.66 14 12 14ZM 13 10.17C 13 10.17 13 5.83 13 5.83 13 5.83 13 3 13 3 13 2.45 12.55 2 12 2 12 2 9.17 2 9.17 2 9.17 2 5.83 2 5.83 2 5.83 2 3 2 3 2 2.45 2 2 2.45 2 3 2 3 2 5.83 2 5.83 2 5.83 2 10.17 2 10.17 2 10.17 2 11 2 11 2 11.55 2.45 12 3 12 3 12 5.83 12 5.83 12 5.83 12 9.17 12 9.17 12 9.17 12 12 12 12 12 12.55 12 13 11.55 13 11 13 11 13 10.17 13 10.17ZM 4 4C 4 4 11 4 11 4 11 4 11 6 11 6 11 6 4 6 4 6 4 6 4 4 4 4ZM 9 9C 9 9 4 9 4 9 4 9 4 7 4 7 4 7 9 7 9 7 9 7 9 9 9 9Z" fill="rgb(83,89,93)"/></svg>