<?xml version="1.0" encoding="utf-8"?>
<svg xmlns="http://www.w3.org/2000/svg"
	xmlns:xlink="http://www.w3.org/1999/xlink"
	width="18px" height="18px" viewBox="0 0 18 18">
<path fillRule="evenodd" d="M 17.99 0.01C 17.99 0.01 15.9 9.08 15.9 9.08 15.9 9.08 13.81 6.99 13.81 6.99 13.81 6.99 11.01 9.78 11.01 9.78 11.01 9.78 8.22 6.99 8.22 6.99 8.22 6.99 11.01 4.19 11.01 4.19 11.01 4.19 8.92 2.1 8.92 2.1 8.92 2.1 17.99 0.01 17.99 0.01ZM 9.16 15.88C 9.16 15.88 0.01 17.99 0.01 17.99 0.01 17.99 2.12 8.84 2.12 8.84 2.12 8.84 4.23 10.95 4.23 10.95 4.23 10.95 7.06 8.12 7.06 8.12 7.06 8.12 9.88 10.94 9.88 10.94 9.88 10.94 7.05 13.77 7.05 13.77 7.05 13.77 9.16 15.88 9.16 15.88Z" fill="rgb(179,179,179)"/></svg>