<?xml version="1.0" encoding="utf-8"?>
<svg xmlns="http://www.w3.org/2000/svg"
	xmlns:xlink="http://www.w3.org/1999/xlink"
	width="16px" height="16px" viewBox="0 0 16 16">
<path fillRule="evenodd" d="M 15.36 15.36C 14.97 15.75 14.34 15.75 13.95 15.36 13.95 15.36 10.34 11.76 10.34 11.76 8 13.42 4.74 13.22 2.64 11.12 0.29 8.78 0.29 4.98 2.64 2.64 4.98 0.29 8.78 0.29 11.12 2.64 13.22 4.74 13.42 8 11.76 10.34 11.76 10.34 15.36 13.95 15.36 13.95 15.75 14.34 15.75 14.97 15.36 15.36ZM 9.82 3.94C 8.19 2.32 5.56 2.32 3.94 3.94 2.32 5.56 2.32 8.19 3.94 9.82 5.56 11.44 8.19 11.44 9.82 9.82 11.44 8.19 11.44 5.56 9.82 3.94Z" fill="rgb(83,89,93)"/></svg>