<?xml version="1.0" encoding="utf-8"?>
<svg xmlns="http://www.w3.org/2000/svg"
	xmlns:xlink="http://www.w3.org/1999/xlink"
	width="32px" height="32px" viewBox="0 0 32 32">
<path fillRule="evenodd" d="M 27 10C 25.34 10 23.88 9.18 22.97 7.94 22.97 7.94 9.71 14.38 9.71 14.38 9.88 14.89 10 15.43 10 16 10 16.46 9.92 16.89 9.8 17.31 9.8 17.31 23 24.03 23 24.03 23.91 22.81 25.35 22 27 22 29.76 22 32 24.24 32 27 32 29.76 29.76 32 27 32 24.24 32 22 29.76 22 27 22 26.6 22.06 26.21 22.15 25.84 22.15 25.84 8.9 19.09 8.9 19.09 7.99 20.25 6.59 21 5 21 2.24 21 0 18.76 0 16 0 13.24 2.24 11 5 11 6.47 11 7.77 11.64 8.69 12.65 8.69 12.65 22.14 6.12 22.14 6.12 22.05 5.76 22 5.39 22 5 22 2.24 24.24 0 27 0 29.76 0 32 2.24 32 5 32 7.76 29.76 10 27 10ZM 27 30C 28.66 30 30 28.66 30 27 30 25.34 28.66 24 27 24 25.34 24 24 25.34 24 27 24 28.66 25.34 30 27 30ZM 5 13C 3.34 13 2 14.34 2 16 2 17.66 3.34 19 5 19 6.66 19 8 17.66 8 16 8 14.34 6.66 13 5 13ZM 27 2C 25.34 2 24 3.34 24 5 24 6.66 25.34 8 27 8 28.66 8 30 6.66 30 5 30 3.34 28.66 2 27 2Z" fill="rgb(149,157,163)"/></svg>