<?xml version="1.0" encoding="utf-8"?>
<svg xmlns="http://www.w3.org/2000/svg"
	xmlns:xlink="http://www.w3.org/1999/xlink"
	width="32px" height="28px" viewBox="0 0 32 28">
<path fillRule="evenodd" d="M 30 22.03C 30 22.03 13.47 22.03 13.47 22.03 13.47 22.03 7.69 27.73 7.69 27.73 7.5 27.91 7.24 28.01 6.99 28.01 6.86 28.01 6.72 27.99 6.6 27.93 6.23 27.78 5.99 27.42 5.99 27.01 5.99 27.01 5.99 22.03 5.99 22.03 5.99 22.03 2 22.03 2 22.03 0.9 22.03 0 21.14 0 20.03 0 20.03 0 1.99 0 1.99 0 0.88 0.9-0.01 2-0.01 2-0.01 30-0.01 30-0.01 31.1-0.01 32 0.88 32 1.99 32 1.99 32 20.03 32 20.03 32 21.14 31.1 22.03 30 22.03ZM 30 1.99C 30 1.99 2 1.99 2 1.99 2 1.99 2 20.03 2 20.03 2 20.03 7.99 20.03 7.99 20.03 7.99 20.03 7.99 24.63 7.99 24.63 7.99 24.63 12.65 20.03 12.65 20.03 12.65 20.03 30 20.03 30 20.03 30 20.03 30 1.99 30 1.99ZM 6 15.03C 6 14.48 6.45 14.03 7 14.03 7 14.03 19 14.03 19 14.03 19.55 14.03 20 14.48 20 15.03 20 15.58 19.55 16.03 19 16.03 19 16.03 7 16.03 7 16.03 6.45 16.03 6 15.58 6 15.03ZM 6 11.03C 6 10.48 6.45 10.03 7 10.03 7 10.03 25 10.03 25 10.03 25.55 10.03 26 10.48 26 11.03 26 11.58 25.55 12.03 25 12.03 25 12.03 7 12.03 7 12.03 6.45 12.03 6 11.58 6 11.03ZM 25 8.03C 25 8.03 7 8.03 7 8.03 6.45 8.03 6 7.58 6 7.03 6 6.48 6.45 6.03 7 6.03 7 6.03 25 6.03 25 6.03 25.55 6.03 26 6.48 26 7.03 26 7.58 25.55 8.03 25 8.03Z" fill="rgb(149,157,163)"/></svg>