<?xml version="1.0" encoding="utf-8"?>
<svg xmlns="http://www.w3.org/2000/svg"
	xmlns:xlink="http://www.w3.org/1999/xlink"
	width="16px" height="14px" viewBox="0 0 16 14">
<path fillRule="evenodd" d="M 15.5 5.87C 15.5 5.87 15.5 5.87 15.5 5.87 15.5 5.87 13.51 7 13.51 7 13.51 7 15.5 8.13 15.5 8.13 15.5 8.13 15.5 8.13 15.5 8.13 15.8 8.3 16 8.63 16 9 16 9.37 15.8 9.7 15.5 9.87 15.5 9.87 15.5 9.87 15.5 9.87 15.5 9.87 8.5 13.87 8.5 13.87 8.5 13.87 8.5 13.87 8.5 13.87 8.35 13.95 8.18 14 8 14 7.82 14 7.65 13.95 7.5 13.87 7.5 13.87 7.5 13.87 7.5 13.87 7.5 13.87 0.5 9.87 0.5 9.87 0.5 9.87 0.5 9.87 0.5 9.87 0.2 9.7 0 9.37 0 9 0 8.63 0.2 8.3 0.5 8.13 0.5 8.13 0.5 8.13 0.5 8.13 0.5 8.13 2.48 7 2.48 7 2.48 7 0.5 5.87 0.5 5.87 0.5 5.87 0.5 5.87 0.5 5.87 0.2 5.7 0 5.37 0 5 0 4.63 0.2 4.3 0.5 4.13 0.5 4.13 0.5 4.13 0.5 4.13 0.5 4.13 7.5 0.13 7.5 0.13 7.5 0.13 7.5 0.13 7.5 0.13 7.65 0.05 7.82 0 8 0 8.18 0 8.35 0.05 8.5 0.13 8.5 0.13 8.5 0.13 8.5 0.13 8.5 0.13 15.5 4.13 15.5 4.13 15.5 4.13 15.5 4.13 15.5 4.13 15.8 4.3 16 4.63 16 5 16 5.37 15.8 5.7 15.5 5.87ZM 3.02 9C 3.02 9 8 11.85 8 11.85 8 11.85 12.98 9 12.98 9 12.98 9 11.5 8.15 11.5 8.15 11.5 8.15 8.5 9.87 8.5 9.87 8.5 9.87 8.5 9.87 8.5 9.87 8.35 9.95 8.18 10 8 10 7.82 10 7.65 9.95 7.5 9.87 7.5 9.87 7.5 9.87 7.5 9.87 7.5 9.87 4.5 8.15 4.5 8.15 4.5 8.15 3.02 9 3.02 9ZM 8 2.15C 8 2.15 3.02 5 3.02 5 3.02 5 6.52 7 6.52 7 6.52 7 6.52 7 6.52 7 6.52 7 6.52 7 6.52 7 6.52 7 8 7.85 8 7.85 8 7.85 9.48 7 9.48 7 9.48 7 9.48 7 9.48 7 9.48 7 9.48 7 9.48 7 9.48 7 12.98 5 12.98 5 12.98 5 8 2.15 8 2.15Z" fill="rgb(55,61,65)"/></svg>