<?xml version="1.0" encoding="utf-8"?>
<svg xmlns="http://www.w3.org/2000/svg"
	xmlns:xlink="http://www.w3.org/1999/xlink"
	width="22px" height="22px" viewBox="0 0 22 22">
<path fillRule="evenodd" d="M 11 22C 4.92 22-0 17.08-0 11-0 4.92 4.92-0 11-0 17.08-0 22 4.92 22 11 22 17.08 17.08 22 11 22ZM 10.08 12.99C 10.08 12.99 9.99 12.99 9.99 12.99 9.99 12.99 9.99 10.99 9.99 10.99 9.99 10.99 14.35 10.99 14.35 10.99 15.27 10.99 16.01 10.4 16.01 9.48 16.01 8.56 15.27 8 14.35 8 14.35 8 9.99 8 9.99 8 9.99 8 9.99 6.66 9.99 6.66 9.99 5.74 9.4 4.99 8.48 4.99 7.56 4.99 7.01 5.74 7.01 6.66 7.01 6.66 7.01 12.99 7.01 12.99 7.01 15.2 8.8 16.99 11 16.99 11 16.99 14.35 16.99 14.35 16.99 15.27 16.99 16.01 16.4 16.01 15.48 16.01 14.56 15.27 13.97 14.35 13.97 14.35 13.97 11 13.97 11 13.97 11 13.97 11 13.86 11 13.86 10.9 13.92 10.79 13.97 10.66 13.97 10.29 13.97 9.99 13.67 9.99 13.3 9.99 13.19 10.03 13.08 10.08 12.99Z" fill="rgb(149,157,163)"/></svg>