<?xml version="1.0" encoding="UTF-8"?><!DOCTYPE svg PUBLIC "-//W3C//DTD SVG 1.1//EN" "http://www.w3.org/Graphics/SVG/1.1/DTD/svg11.dtd"><svg xmlns="http://www.w3.org/2000/svg"><symbol id="icon-arrow-down" viewBox="0 0 512 512">
    <path d="M396.6 160l19.4 20.7L256 352 96 180.7l19.3-20.7L256 310.5z"/>
</symbol><symbol id="icon-bg-jobs" viewBox="0 0 15 15">
    <path d="M12 15H3c-1.66 0-3-1.34-3-3V3c0-1.66 1.34-3 3-3h9c1.66 0 3 1.34 3 3v9c0 1.66-1.34 3-3 3zm1-5.83V6H2V4h7V2h2v2h2V3c0-.55-.45-1-1-1H9.17 5.83 3c-.55 0-1 .45-1 1v9c0 .55.45 1 1 1h9c.55 0 1-.45 1-1V9.17z"/>
</symbol><symbol id="icon-facebook" viewBox="0 0 10 19">
    <title>
        facebook
    </title>
    <path d="M9.766.157v2.946H8.014c-.64 0-1.071.134-1.295.402-.223.268-.335.67-.335 1.205v2.11h3.27l-.435 3.303H6.384v8.471H2.97v-8.47H.123V6.82H2.97V4.387c0-1.384.387-2.457 1.161-3.22C4.904.404 5.934.023 7.222.023c1.093 0 1.941.045 2.544.134z" fill-rule="evenodd"/>
</symbol><symbol id="icon-favorites" viewBox="0 0 26 26">
    <path d="M24.963 10.241a.749.749 0 0 0-.606-.51l-7.382-1.074-3.302-6.694c-.254-.512-1.092-.512-1.346 0L9.025 8.657 1.643 9.73a.749.749 0 0 0-.416 1.28l5.342 5.21-1.261 7.358a.75.75 0 0 0 1.088.791L13 20.896l6.604 3.473a.755.755 0 0 0 .369.086.75.75 0 0 0 .691-1.043l-1.233-7.191 5.342-5.211a.749.749 0 0 0 .19-.769zm-6.861 5.18a.75.75 0 0 0-.216.665l1.071 6.248-5.607-2.95a.75.75 0 0 0-.7 0l-5.607 2.95 1.071-6.248a.75.75 0 0 0-.216-.664l-4.537-4.426 6.27-.911a.75.75 0 0 0 .565-.41L13 3.99l2.804 5.685c.11.22.32.375.565.41l6.27.911-4.537 4.426z"/>
</symbol><symbol id="icon-file" viewBox="0 0 22 18">
    <path d="M22 15c0 1.66-1.34 3-3 3h-6c-.77 0-1.47-.3-2-.78-.53.48-1.23.78-2 .78H3c-1.66 0-3-1.34-3-3v-4c0-.77.3-1.47.78-2C.3 8.47 0 7.77 0 7V3c0-1.66 1.34-3 3-3h6c.77 0 1.47.3 2 .78C11.53.3 12.23 0 13 0h6c1.66 0 3 1.34 3 3v4c0 .77-.3 1.47-.78 2 .48.53.78 1.23.78 2v4zm-10-2.83V15c0 .55.45 1 1 1h6c.55 0 1-.45 1-1v-1.17-1.66V11c0-.55-.45-1-1-1h-1.83-2.34H13c-.55 0-1 .45-1 1v1.17zm-2-6.34V4.17 3c0-.55-.45-1-1-1H7.17 4.83 3c-.55 0-1 .45-1 1v4c0 .55.45 1 1 1h6c.55 0 1-.45 1-1V5.83zm0 8v-1.66V11c0-.55-.45-1-1-1H7.17 4.83 3c-.55 0-1 .45-1 1v4c0 .55.45 1 1 1h6c.55 0 1-.45 1-1v-1.17zm10-8V4.17 3c0-.55-.45-1-1-1h-1.83-2.34H13c-.55 0-1 .45-1 1v4c0 .55.45 1 1 1h6c.55 0 1-.45 1-1V5.83z"/>
</symbol><symbol id="icon-gear" viewBox="0 0 16 16">
    <path d="M15 7c.55 0 1 .45 1 1s-.45 1-1 1h-1.08c-.07.38-.17.74-.3 1.09l.94.54c.48.28.64.89.37 1.37-.28.48-.89.64-1.37.37l-.94-.55c-.24.29-.51.56-.8.8l.55.94c.27.48.11 1.09-.37 1.37-.48.27-1.09.11-1.37-.37l-.54-.94c-.35.13-.71.23-1.09.3V15c0 .55-.45 1-1 1s-1-.45-1-1v-1.08c-.38-.07-.74-.17-1.09-.3l-.54.94c-.28.48-.89.64-1.37.37a1.01 1.01 0 0 1-.37-1.37l.55-.94a5.5 5.5 0 0 1-.8-.8l-.94.55c-.48.27-1.09.11-1.37-.37a1.01 1.01 0 0 1 .37-1.37l.94-.54c-.13-.35-.23-.71-.3-1.09H1c-.55 0-1-.45-1-1s.45-1 1-1h1.08c.07-.38.16-.74.3-1.09l-.94-.54A1.01 1.01 0 0 1 1.07 4c.28-.48.89-.64 1.37-.37l.94.55c.24-.3.5-.56.8-.8l-.55-.94A1.01 1.01 0 0 1 4 1.07a1.01 1.01 0 0 1 1.37.37l.54.94c.35-.13.71-.23 1.09-.3V1c0-.55.45-1 1-1s1 .45 1 1v1.08c.38.07.74.17 1.09.3l.54-.94c.28-.48.89-.64 1.37-.37.48.28.64.89.37 1.37l-.55.94c.29.24.56.51.8.8l.94-.55a1.01 1.01 0 0 1 1.37.37c.27.48.11 1.09-.37 1.37l-.94.54c.13.35.23.71.3 1.09H15zM8 4C5.79 4 4 5.79 4 8s1.79 4 4 4 4-1.79 4-4-1.79-4-4-4zm0 6a2 2 0 1 1-.001-3.999A2 2 0 0 1 8 10z"/>
</symbol><symbol id="icon-home" viewBox="0 0 16 14">
    <path d="M16 6c0 .55-.45 1-1 1a.96.96 0 0 1-.58-.19l-.42-.3V13c0 .55-.45 1-1 1H3c-.55 0-1-.45-1-1V6.51l-.42.3A.96.96 0 0 1 1 7c-.55 0-1-.45-1-1 0-.34.17-.63.42-.81L2 4.06V1c0-.55.45-1 1-1s1 .45 1 1v1.63L7.42.19A.96.96 0 0 1 8 0c.22 0 .42.07.58.19l7 5c.25.18.42.47.42.81zm-4-.91L8 2.23 4 5.09V12h8V5.09z"/>
</symbol><symbol id="icon-layers" viewBox="0 0 33 32">
    <path d="M31.58 9.42l-15 8.08c-.15.08-.32.12-.48.12-.16 0-.33-.04-.48-.12L.78 9.42c-.33-.18-.53-.53-.53-.9.01-.37.22-.71.56-.88l15-7.54c.28-.14.62-.14.9.01l14.85 7.54c.33.17.54.5.54.88.01.37-.19.71-.52.89zm-15.33-7.3L3.41 8.57l12.69 6.92 12.85-6.93-12.7-6.44zM3.77 13.42l2.14 1.16-2.67 1.34 12.69 6.91 12.85-6.92-2.5-1.27 2.14-1.15 2.97 1.5c.33.17.54.51.54.88.01.38-.2.72-.52.9L16.4 24.85a1.005 1.005 0 0 1-.95 0L.6 16.76a1.01 1.01 0 0 1-.52-.89c.01-.37.22-.71.55-.88l3.14-1.57zM.63 21.99l2.95-1.35 2.14 1.16-2.48 1.12 12.69 6.91 12.85-6.92-2.35-1.14 2.14-1.16 2.82 1.38c.33.17.54.51.54.88.01.38-.2.72-.52.9L16.4 31.85a1.005 1.005 0 0 1-.95 0L.6 23.76a1.01 1.01 0 0 1-.52-.89c.01-.37.22-.71.55-.88z"/>
</symbol><symbol id="icon-left-arrow" viewBox="0 0 7 14">
    <path d="M6.86.85l-5.7 6.13 5.7 6.14c.19.2.19.52 0 .72-.18.2-.48.2-.67 0L.15 7.34a.526.526 0 0 1 0-.72L6.19.13c.19-.2.49-.2.67 0 .19.2.19.52 0 .72z"/>
</symbol><symbol id="icon-link" viewBox="0 0 32 32">
    <path d="M30.1 11.09l-4.03 4.03a6.471 6.471 0 0 1-4.6 1.9c-.85 0-1.66-.1-2.46-.43L20.6 15c.3.06.57.02.87.02 1.2 0 2.34-.46 3.18-1.31l4.04-4.04a4.5 4.5 0 0 0-.01-6.36A4.462 4.462 0 0 0 25.5 2c-1.2 0-2.33.46-3.18 1.31l-4.04 3.92c-1.2 1.2-1.55 2.93-1.1 4.46l-1.55 1.55a6.491 6.491 0 0 1 1.25-7.44l4.03-3.9A6.449 6.449 0 0 1 25.5 0a6.494 6.494 0 0 1 4.6 11.09zM9.95 23.18a.996.996 0 0 1-.71-1.7L21.35 9.27c.39-.39 1.03-.39 1.42 0 .39.39.39 1.02 0 1.41L10.65 22.89c-.19.19-.45.29-.7.29zm.48-6.24c-1.2 0-2.33.47-3.18 1.32l-3.94 4.07a4.5 4.5 0 0 0 .01 6.36C4.17 29.54 5.3 30 6.5 30c1.2 0 2.33-.46 3.18-1.31l4.04-3.92c1.13-1.12 1.48-2.55 1.15-4.01l1.59-1.59c1.02 2.38.6 5.09-1.34 7.03l-4.03 3.9A6.449 6.449 0 0 1 6.5 32a6.494 6.494 0 0 1-4.6-11.09l3.94-4.06a6.476 6.476 0 0 1 4.59-1.91c.95 0 1.89.22 2.76.62l-1.56 1.56c-.39-.1-.79-.18-1.2-.18z"/>
</symbol><symbol id="icon-paper-plane" viewBox="0 0 32 32">
    <path d="M31.82 1.31L19.06 31.14c-.24.57-.6.85-.97.85-.34 0-.69-.23-.98-.71L12.06 23c-.62-1-1.93-2.32-2.92-2.94L.71 14.8c-.99-.62-.92-1.5.15-1.95L30.7.18c.27-.12.5-.17.69-.17.58 0 .78.49.43 1.3zM17.91 28.64l9.84-23-14.83 15.09c.35.42.67.84.91 1.23l4.08 6.68zm-7.73-10.37c.43.27.88.64 1.33 1.04L26.28 4.28 3.35 14.01l6.83 4.26z"/>
</symbol><symbol id="icon-recent" viewBox="0 0 15 14">
    <path d="M12 14H3c-1.66 0-3-1.34-3-3V3c0-1.66 1.34-3 3-3h9c1.66 0 3 1.34 3 3v8c0 1.66-1.34 3-3 3zm1-3.83V5.83 3c0-.55-.45-1-1-1H9.17 5.83 3c-.55 0-1 .45-1 1v8c0 .55.45 1 1 1h9c.55 0 1-.45 1-1v-.83zM4 4h7v2H4V4zm5 5H4V7h5v2z"/>
</symbol><symbol id="icon-resize" viewBox="0 0 18 18">
    <path d="M17.99.01L15.9 9.08l-2.09-2.09-2.8 2.79-2.79-2.79 2.79-2.8L8.92 2.1 17.99.01zM9.16 15.88L.01 17.99l2.11-9.15 2.11 2.11 2.83-2.83 2.82 2.82-2.83 2.83 2.11 2.11z"/>
</symbol><symbol id="icon-right-arrow" viewBox="0 0 7 14">
    <path d="M6.85 7.34l-6.04 6.5c-.19.2-.49.2-.67 0a.526.526 0 0 1 0-.72l5.7-6.14L.14.85a.526.526 0 0 1 0-.72c.18-.2.48-.2.67 0l6.04 6.49c.19.2.19.53 0 .72z"/>
</symbol><symbol id="icon-search" viewBox="0 0 16 16">
    <path d="M15.36 15.36a.996.996 0 0 1-1.41 0l-3.61-3.6c-2.34 1.66-5.6 1.46-7.7-.64a5.981 5.981 0 0 1 0-8.48 5.981 5.981 0 0 1 8.48 0c2.1 2.1 2.3 5.36.64 7.7l3.6 3.61c.39.39.39 1.02 0 1.41zM9.82 3.94a4.165 4.165 0 0 0-5.88 0 4.165 4.165 0 0 0 0 5.88 4.165 4.165 0 0 0 5.88 0 4.165 4.165 0 0 0 0-5.88z"/>
</symbol><symbol id="icon-share" viewBox="0 0 32 32">
    <path d="M27 10c-1.66 0-3.12-.82-4.03-2.06L9.71 14.38c.17.51.29 1.05.29 1.62 0 .46-.08.89-.2 1.31L23 24.03c.91-1.22 2.35-2.03 4-2.03 2.76 0 5 2.24 5 5s-2.24 5-5 5-5-2.24-5-5c0-.4.06-.79.15-1.16L8.9 19.09A4.938 4.938 0 0 1 5 21c-2.76 0-5-2.24-5-5s2.24-5 5-5c1.47 0 2.77.64 3.69 1.65l13.45-6.53C22.05 5.76 22 5.39 22 5c0-2.76 2.24-5 5-5s5 2.24 5 5-2.24 5-5 5zm0 20c1.66 0 3-1.34 3-3s-1.34-3-3-3-3 1.34-3 3 1.34 3 3 3zM5 13c-1.66 0-3 1.34-3 3s1.34 3 3 3 3-1.34 3-3-1.34-3-3-3zM27 2c-1.66 0-3 1.34-3 3s1.34 3 3 3 3-1.34 3-3-1.34-3-3-3z"/>
</symbol><symbol id="icon-speech" viewBox="0 0 32 28">
    <path d="M30 22.03H13.47l-5.78 5.7c-.19.18-.45.28-.7.28a.88.88 0 0 1-.39-.08.983.983 0 0 1-.61-.92v-4.98H2a2 2 0 0 1-2-2V1.99a2 2 0 0 1 2-2h28a2 2 0 0 1 2 2v18.04a2 2 0 0 1-2 2zm0-20.04H2v18.04h5.99v4.6l4.66-4.6H30V1.99zM6 15.03c0-.55.45-1 1-1h12c.55 0 1 .45 1 1s-.45 1-1 1H7c-.55 0-1-.45-1-1zm0-4c0-.55.45-1 1-1h18c.55 0 1 .45 1 1s-.45 1-1 1H7c-.55 0-1-.45-1-1zm19-3H7c-.55 0-1-.45-1-1s.45-1 1-1h18c.55 0 1 .45 1 1s-.45 1-1 1z"/>
</symbol><symbol id="icon-tasks" viewBox="0 0 16 14">
    <path d="M15.5 5.87L13.51 7l1.99 1.13c.3.17.5.5.5.87a1 1 0 0 1-.5.87l-7 4c-.15.08-.32.13-.5.13s-.35-.05-.5-.13l-7-4A1 1 0 0 1 0 9c0-.37.2-.7.5-.87L2.48 7 .5 5.87A1 1 0 0 1 0 5c0-.37.2-.7.5-.87l7-4C7.65.05 7.82 0 8 0s.35.05.5.13l7 4c.3.17.5.5.5.87a1 1 0 0 1-.5.87zM3.02 9L8 11.85 12.98 9l-1.48-.85-3 1.72c-.15.08-.32.13-.5.13s-.35-.05-.5-.13l-3-1.72L3.02 9zM8 2.15L3.02 5l3.5 2L8 7.85 9.48 7l3.5-2L8 2.15z"/>
</symbol><symbol id="icon-tw" viewBox="0 0 22 22">
    <path d="M11 22C4.92 22 0 17.08 0 11S4.92 0 11 0s11 4.92 11 11-4.92 11-11 11zm-.92-9.01h-.09v-2h4.36c.92 0 1.66-.59 1.66-1.51S15.27 8 14.35 8H9.99V6.66c0-.92-.59-1.67-1.51-1.67s-1.47.75-1.47 1.67v6.33c0 2.21 1.79 4 3.99 4h3.35c.92 0 1.66-.59 1.66-1.51s-.74-1.51-1.66-1.51H11v-.11c-.1.06-.21.11-.34.11a.67.67 0 0 1-.67-.67c0-.11.04-.22.09-.31z"/>
</symbol></svg>